#!OML:ASF X:\für Bonn\!DataBase\2005_08_11_Bastian_Final\c3d\Bastian.ASF
:FULLY-SPECIFIED
:DEGREES
351
root 12.0596 17.1117 -0.704758 1098.91 -78.5669 -25.262
lowerback 12.9456 -2.48183 0.430706
upperback 11.6456 -3.96929 1.14662
thorax 5.141 -2.31079 1.2593
lowerneck -9.08529 -6.57493 -3.56805
upperneck -7.67728 -8.48323 14.9221
head 0.0698912 -4.39074 4.79478
rclavicle 1.37161e-014 -1.47101e-014
rhumerus -33.1156 1.78406 -79.9934
rradius 18.2002
rwrist -2.39079
rhand -18.5459 3.44118
rfingers 7.12502
rthumb 7.74351 -26.397
lclavicle 1.37161e-014 -1.47101e-014
lhumerus -5.30569 -12.3063 -275.86
lradius 28.7372
lwrist -340.384
lhand -14.0302 -10.5874
lfingers 7.12502
lthumb 12.0999 19.0427
rfemur -32.053 -6.69089 25.4596
rtibia 40.0552
rfoot -17.5169 -7.02748
rtoes -4.93093
lfemur 27.4738 3.64714 -14.3387
ltibia -3.18055e-014
lfoot -12.9635 -6.14329
ltoes -13.5721
352
root 11.9365 17.0881 -0.703614 1098.94 -78.4504 -25.2014
lowerback 12.6857 -2.56519 0.536788
upperback 11.541 -4.06398 1.26149
thorax 5.17027 -2.34984 1.31702
lowerneck -9.18631 -6.55958 -3.57664
upperneck -7.64669 -8.46391 14.7756
head 0.0849842 -4.37382 4.7493
rclavicle -1.21259e-014 7.95139e-016
rhumerus -33.7882 1.34171 -79.7723
rradius 17.6556
rwrist -1.55283
rhand -18.2737 3.33614
rfingers 7.12502
rthumb 8.00619 -26.4922
lclavicle -1.21259e-014 7.95139e-016
lhumerus -5.38549 -12.3687 -275.599
lradius 28.5937
lwrist -340.716
lhand -13.9217 -10.688
lfingers 7.12502
lthumb 12.2046 18.936
rfemur -32.0358 -6.52016 25.4345
rtibia 39.6096
rfoot -17.6277 -7.02949
rtoes -5.622
lfemur 27.8088 3.41058 -14.2723
ltibia -1.90833e-014
lfoot -13.3142 -5.99948
ltoes -14.3377
353
root 11.8114 17.0655 -0.703509 1099.06 -78.3035 -25.2647
lowerback 12.4805 -2.65923 0.684811
upperback 11.4226 -4.16849 1.37159
thorax 5.15234 -2.39085 1.35057
lowerneck -9.19614 -6.53782 -3.61109
upperneck -7.66121 -8.42902 14.7071
head 0.0766889 -4.35452 4.73615
rclavicle -4.96962e-014 1.78906e-014
rhumerus -34.4895 1.07066 -79.6541
rradius 17.1053
rwrist -0.923988
rhand -18.036 3.23132
rfingers 7.12502
rthumb 8.23555 -26.5882
lclavicle -4.96962e-014 1.78906e-014
lhumerus -5.52244 -12.342 -275.338
lradius 28.4537
lwrist -341.026
lhand -13.7981 -10.7438
lfingers 7.12502
lthumb 12.3237 18.873
rfemur -31.9623 -6.40717 25.4594
rtibia 39.2648
rfoot -17.654 -7.00354
rtoes -6.32231
lfemur 28.1818 3.1452 -14.1587
ltibia -1.59028e-014
lfoot -13.6418 -5.8905
ltoes -14.9122
354
root 11.6807 17.0424 -0.703898 1099.22 -78.1615 -25.3486
lowerback 12.2203 -2.74328 0.855805
upperback 11.3149 -4.25992 1.46998
thorax 5.17315 -2.42315 1.35387
lowerneck -9.2525 -6.52263 -3.60729
upperneck -7.65638 -8.40865 14.5938
head 0.0784361 -4.34068 4.70077
rclavicle -1.82882e-014 3.37934e-014
rhumerus -35.121 0.551413 -79.4164
rradius 16.4185
rwrist -0.0177104
rhand -17.7935 3.23991
rfingers 7.12502
rthumb 8.46966 -26.5702
lclavicle -1.82882e-014 3.37934e-014
lhumerus -5.63496 -12.3594 -275.096
lradius 28.2911
lwrist -341.272
lhand -13.6404 -10.8013
lfingers 7.12502
lthumb 12.4758 18.8064
rfemur -31.8956 -6.31871 25.5059
rtibia 39.0402
rfoot -17.6214 -6.92241
rtoes -6.77215
lfemur 28.553 2.88542 -14.0382
ltibia -3.18055e-014
lfoot -13.9754 -5.77369
ltoes -15.5791
355
root 11.5468 17.019 -0.705421 1099.29 -77.9874 -25.3531
lowerback 11.9988 -2.83708 1.00711
upperback 11.1939 -4.3651 1.57168
thorax 5.16075 -2.46384 1.37502
lowerneck -9.30247 -6.50212 -3.58298
upperneck -7.65359 -8.38307 14.4881
head 0.0776612 -4.32533 4.66492
rclavicle 4.42296e-014 -2.06736e-014
rhumerus -35.7937 0.173152 -79.2532
rradius 15.8275
rwrist 0.709705
rhand -17.6425 3.48396
rfingers 7.12502
rthumb 8.6153 -26.3203
lclavicle 4.42296e-014 -2.06736e-014
lhumerus -5.75471 -12.3552 -274.856
lradius 28.0879
lwrist -341.469
lhand -13.4603 -10.7719
lfingers 7.12502
lthumb 12.6494 18.8251
rfemur -31.798 -6.27684 25.5572
rtibia 38.9189
rfoot -17.4877 -6.83596
rtoes -7.27575
lfemur 28.9539 2.58409 -13.9119
ltibia -4.13472e-014
lfoot -14.2947 -5.65582
ltoes -16.1989
356
root 11.4098 16.9958 -0.707506 1099.37 -77.8127 -25.3776
lowerback 11.7928 -2.92802 1.20346
upperback 11.0687 -4.46204 1.64597
thorax 5.12965 -2.49622 1.34281
lowerneck -9.36591 -6.48149 -3.54339
upperneck -7.6573 -8.359 14.4128
head 0.0783752 -4.3116 4.63538
rclavicle 2.75317e-014 -2.06736e-014
rhumerus -36.4337 -0.197509 -79.1585
rradius 15.3746
rwrist 1.12156
rhand -17.5613 3.89705
rfingers 7.12502
rthumb 8.69369 -25.9039
lclavicle 2.75317e-014 -2.06736e-014
lhumerus -5.88349 -12.4355 -274.654
lradius 27.8772
lwrist -341.594
lhand -13.3215 -10.7312
lfingers 7.12502
lthumb 12.7833 18.8574
rfemur -31.7071 -6.28317 25.6338
rtibia 38.9134
rfoot -17.1973 -6.70186
rtoes -6.94109
lfemur 29.3561 2.28187 -13.7788
ltibia 2.22639e-014
lfoot -14.5947 -5.52477
ltoes -17.1901
357
root 11.2694 16.9727 -0.710119 1099.44 -77.6381 -25.3956
lowerback 11.6129 -3.02119 1.37167
upperback 10.9362 -4.56498 1.74296
thorax 5.08067 -2.53497 1.35191
lowerneck -9.48068 -6.46515 -3.54752
upperneck -7.57705 -8.34292 14.3191
head 0.113549 -4.29426 4.60333
rclavicle 8.94531e-015 -1.72943e-014
rhumerus -37.0554 -0.545016 -78.995
rradius 14.928
rwrist 1.44644
rhand -17.4383 4.40566
rfingers 7.12502
rthumb 8.81242 -25.3903
lclavicle 8.94531e-015 -1.72943e-014
lhumerus -6.09039 -12.4105 -274.403
lradius 27.6841
lwrist -341.705
lhand -13.1355 -10.6605
lfingers 7.12502
lthumb 12.9625 18.9168
rfemur -31.5902 -6.29555 25.709
rtibia 38.9921
rfoot -16.7549 -6.53397
rtoes -6.68394
lfemur 29.7768 1.97675 -13.6446
ltibia 6.67916e-014
lfoot -14.854 -5.41584
ltoes -17.9393
358
root 11.1265 16.9506 -0.713328 1099.33 -77.4673 -25.2369
lowerback 11.4432 -3.11109 1.51768
upperback 10.796 -4.66376 1.82204
thorax 5.01774 -2.57222 1.35505
lowerneck -9.5907 -6.44332 -3.55534
upperneck -7.48365 -8.31975 14.2343
head 0.151912 -4.27284 4.57477
rclavicle 1.46107e-014 -1.74931e-014
rhumerus -37.713 -0.932233 -78.8296
rradius 14.5477
rwrist 1.79971
rhand -17.3192 4.82666
rfingers 7.12502
rthumb 8.92735 -24.9645
lclavicle 1.46107e-014 -1.74931e-014
lhumerus -6.38505 -12.3216 -274.128
lradius 27.525
lwrist -341.866
lhand -13.0257 -10.5783
lfingers 7.12502
lthumb 13.0685 18.9923
rfemur -31.4853 -6.3411 25.7618
rtibia 39.1618
rfoot -16.2555 -6.36844
rtoes -7.25442
lfemur 30.2156 1.65895 -13.5419
ltibia -5.08889e-014
lfoot -15.0709 -5.30267
ltoes -18.8363
359
root 10.9818 16.9278 -0.717144 1099.42 -77.269 -25.2954
lowerback 11.2715 -3.20392 1.72198
upperback 10.6663 -4.76481 1.90974
thorax 4.96405 -2.60798 1.3343
lowerneck -9.66303 -6.42827 -3.55693
upperneck -7.45221 -8.30137 14.1622
head 0.166937 -4.25863 4.55146
rclavicle -7.67309e-014 4.79071e-014
rhumerus -38.3008 -1.45566 -78.5687
rradius 14.1769
rwrist 2.48408
rhand -17.1582 5.00767
rfingers 7.12502
rthumb 9.08271 -24.7768
lclavicle -7.67309e-014 4.79071e-014
lhumerus -6.70861 -12.1856 -273.86
lradius 27.3422
lwrist -342.047
lhand -12.8812 -10.464
lfingers 7.12502
lthumb 13.2077 19.0976
rfemur -31.3575 -6.41879 25.878
rtibia 39.3939
rfoot -15.721 -6.18028
rtoes -7.57231
lfemur 30.6739 1.32516 -13.3773
ltibia -1.08139e-013
lfoot -15.2716 -5.19292
ltoes -19.58
360
root 10.8356 16.906 -0.721977 1099.19 -77.0915 -25.055
lowerback 11.1396 -3.29228 1.8634
upperback 10.54 -4.86334 1.97682
thorax 4.89528 -2.64625 1.32901
lowerneck -9.76796 -6.40425 -3.56662
upperneck -7.40401 -8.27173 14.09
head 0.19146 -4.23686 4.52865
rclavicle -8.94531e-015 3.77691e-015
rhumerus -38.8753 -1.97493 -78.3077
rradius 13.9267
rwrist 3.28729
rhand -16.9158 4.81042
rfingers 7.12502
rthumb 9.31657 -24.9637
lclavicle -8.94531e-015 3.77691e-015
lhumerus -7.07755 -12.0378 -273.584
lradius 27.1805
lwrist -342.219
lhand -12.7711 -10.2537
lfingers 7.12502
lthumb 13.3138 19.301
rfemur -31.2171 -6.46082 25.9155
rtibia 39.7024
rfoot -15.1206 -6.0457
rtoes -7.40434
lfemur 31.1625 0.987919 -13.2877
ltibia 1.59028e-014
lfoot -15.424 -5.06974
ltoes -20.5736
361
root 10.6869 16.884 -0.727902 1099.03 -76.9401 -24.8513
lowerback 10.986 -3.38148 1.97234
upperback 10.3995 -4.96502 2.04996
thorax 4.82589 -2.68805 1.34704
lowerneck -9.86117 -6.36414 -3.59961
upperneck -7.32547 -8.21993 14.0208
head 0.222375 -4.20218 4.51133
rclavicle -5.71506e-015 1.49089e-014
rhumerus -39.4073 -2.52103 -77.9883
rradius 13.6269
rwrist 4.08815
rhand -16.6528 4.74101
rfingers 7.12502
rthumb 9.57034 -25.0216
lclavicle -5.71506e-015 1.49089e-014
lhumerus -7.51042 -11.9105 -273.314
lradius 27.0168
lwrist -342.367
lhand -12.6915 -10.0216
lfingers 7.12502
lthumb 13.3905 19.528
rfemur -31.0898 -6.53111 25.9778
rtibia 40.0737
rfoot -14.4905 -5.87987
rtoes -7.22904
lfemur 31.6518 0.674216 -13.1901
ltibia -1.59028e-014
lfoot -15.4508 -4.98545
ltoes -21.5207
